<svg width="180" height="42" viewBox="0 0 180 42" fill="none" xmlns="http://www.w3.org/2000/svg">
<g clip-path="url(#clip0_2005_107)">
<path d="M180 0.724471V36.8179C180 36.9414 179.9 37.0423 179.776 37.0423H169.407C169.284 37.0423 169.185 36.9414 169.185 36.8179V35.9789C169.185 35.7941 168.975 35.6853 168.828 35.7953C168.584 35.9789 168.327 36.149 168.055 36.3077C166.862 36.9868 165.428 37.3291 163.788 37.3291C161.834 37.3291 160.046 36.8122 158.469 35.793L158.458 35.7862C156.893 34.7432 155.639 33.2422 154.731 31.3251L154.724 31.3092C154.301 30.3728 153.982 29.3536 153.764 28.2562C153.392 29.9329 152.652 31.4657 151.561 32.817C150.455 34.199 149.023 35.3168 147.31 36.1365C145.621 36.929 143.744 37.3291 141.725 37.3291C139.312 37.3291 137.121 36.8111 135.211 35.7896C133.303 34.7545 131.791 33.2592 130.708 31.3421L130.7 31.3274C130.234 30.4646 129.869 29.535 129.61 28.5419C129.395 29.5316 129.094 30.4556 128.709 31.3092L128.702 31.3251C127.794 33.2422 126.54 34.7432 124.975 35.7862L124.964 35.793C123.387 36.8122 121.598 37.3291 119.645 37.3291C118.005 37.3291 116.571 36.9868 115.378 36.3077C115.106 36.149 114.848 35.9789 114.604 35.7953C114.458 35.6853 114.248 35.7941 114.248 35.9789V36.8179C114.248 36.9414 114.148 37.0423 114.026 37.0423H103.656C103.636 37.0423 103.619 37.0401 103.602 37.0355C103.585 37.0401 103.567 37.0423 103.548 37.0423H93.2169C93.0943 37.0423 92.9942 36.9414 92.9942 36.8167V23.8892C92.9942 23.0321 92.7828 22.3927 92.35 21.9359L92.323 21.9064C91.9249 21.4472 91.4044 21.233 90.6848 21.233C89.9651 21.233 89.3985 21.454 89.006 21.9064L88.9937 21.9211C88.5777 22.3803 88.3753 23.0242 88.3753 23.8892V36.8167C88.3753 36.9414 88.2763 37.0423 88.1526 37.0423H79.7366L80.77 41.2177C80.8115 41.3866 80.6553 41.5385 80.4889 41.4909L64.4192 36.8485C63.4994 37.1682 62.4718 37.3291 61.3463 37.3291C59.3932 37.3291 57.6043 36.8122 56.0279 35.793L56.0167 35.7862C54.4516 34.7432 53.1979 33.2422 52.2894 31.3251L52.2826 31.3092C52.1398 30.9907 52.0071 30.663 51.888 30.3263V36.9414C51.888 37.065 51.7879 37.1659 51.6642 37.1659H41.294C41.1704 37.1659 41.0714 37.065 41.0714 36.9414V35.6161C41.0714 35.4279 40.8567 35.3248 40.7094 35.4404C40.3687 35.7091 40.0044 35.9562 39.6198 36.183C38.2897 36.9448 36.7189 37.3291 34.9435 37.3291C32.0494 37.3291 29.7534 36.3236 28.1185 34.3396C27.0245 33.0359 26.2937 31.4158 25.935 29.501C25.754 30.1336 25.5347 30.7379 25.2761 31.3092L25.2694 31.3251C24.3609 33.2422 23.1072 34.7432 21.542 35.7862L21.5308 35.793C19.9544 36.8122 18.1655 37.3291 16.2125 37.3291C14.572 37.3291 13.1384 36.9868 11.9454 36.3077C11.6733 36.149 11.4158 35.9789 11.1707 35.7953C11.0246 35.6853 10.8154 35.7941 10.8154 35.9789V36.8179C10.8154 36.9414 10.7154 37.0423 10.5928 37.0423H0.222628C0.10007 37.0423 0 36.9414 0 36.8179V0.724471C0 0.599765 0.10007 0.5 0.222628 0.5H10.5928C10.7154 0.5 10.8154 0.599765 10.8154 0.724471V8.79863C10.8154 8.98342 11.0234 9.08659 11.1719 8.97889C11.417 8.79977 11.6756 8.63425 11.9477 8.48233C13.1373 7.77831 14.572 7.42233 16.2125 7.42233C18.1678 7.42233 19.9589 7.95403 21.5364 9.0027C23.106 10.0196 24.3631 11.5229 25.2738 13.4774C25.42 13.7982 25.5549 14.1281 25.6764 14.4694V8.05606C25.6764 7.93136 25.7753 7.83159 25.899 7.83159H36.2298C36.3524 7.83159 36.4525 7.93136 36.4525 8.05606V20.9847C36.4525 21.8418 36.6638 22.4812 37.0967 22.938L37.1237 22.9675C37.5217 23.4267 38.0423 23.6409 38.7619 23.6409C39.4815 23.6409 40.0482 23.4199 40.4406 22.9675L40.453 22.9528C40.869 22.4936 41.0714 21.8497 41.0714 20.9847V8.05606C41.0714 7.93136 41.1704 7.83159 41.294 7.83159H51.6642C51.7879 7.83159 51.888 7.93136 51.888 8.05606V14.4535C52.0083 14.1179 52.1409 13.7925 52.2849 13.4774C53.1956 11.5229 54.4527 10.0196 56.0223 9.0027C57.5998 7.95403 59.391 7.42233 61.3463 7.42233C62.9867 7.42233 64.4214 7.77831 65.611 8.48233C65.8831 8.63425 66.1429 8.79977 66.3869 8.97889C66.5364 9.08659 66.7433 8.98342 66.7433 8.79863V0.724471C66.7433 0.599765 66.8434 0.5 66.9659 0.5H77.3361C77.4598 0.5 77.5587 0.599765 77.5587 0.724471V7.93249C77.5587 7.80778 77.6588 7.70802 77.7813 7.70802H88.1526C88.2763 7.70802 88.3753 7.80778 88.3753 7.93249V9.25664C88.3753 9.44484 88.59 9.548 88.7362 9.43237C89.078 9.16368 89.4423 8.91654 89.8268 8.69093C91.157 7.92909 92.7277 7.54477 94.5031 7.54477C97.3973 7.54477 99.6933 8.55035 101.328 10.5343C102.348 11.7496 103.052 13.2404 103.433 14.9875V0.724471C103.433 0.599765 103.533 0.5 103.656 0.5H114.026C114.148 0.5 114.248 0.599765 114.248 0.724471V8.79863C114.248 8.98342 114.456 9.08659 114.605 8.97889C114.85 8.79977 115.109 8.63425 115.381 8.48233C116.57 7.77831 118.005 7.42233 119.645 7.42233C121.601 7.42233 123.392 7.95403 124.969 9.0027C126.539 10.0196 127.796 11.5229 128.707 13.4774C129.094 14.322 129.395 15.2391 129.61 16.2243C129.869 15.2357 130.235 14.3118 130.703 13.4592C131.787 11.5093 133.301 9.99808 135.206 8.96415C137.121 7.94043 139.312 7.42233 141.725 7.42233C144.138 7.42233 146.312 7.93929 148.196 8.95962C150.132 9.96747 151.649 11.4379 152.706 13.3311C153.197 14.1882 153.577 15.1212 153.845 16.1246C154.058 15.1779 154.353 14.2936 154.726 13.4774C155.637 11.5229 156.894 10.0196 158.464 9.0027C160.041 7.95403 161.832 7.42233 163.788 7.42233C165.428 7.42233 166.863 7.77831 168.052 8.48233C168.324 8.63425 168.583 8.79977 168.828 8.97889C168.977 9.08659 169.185 8.98342 169.185 8.79863V0.724471C169.185 0.599765 169.284 0.5 169.407 0.5H179.776C179.9 0.5 180 0.599765 180 0.724471Z" fill="#071E22"/>
<path d="M50.9874 8.96302V31.6119C50.9874 31.7355 50.8884 31.8364 50.7647 31.8364H42.1936C42.0699 31.8364 41.9698 31.7355 41.9698 31.6119V29.0169C41.9698 28.8015 41.7011 28.7108 41.5707 28.8809C40.9253 29.7175 40.1236 30.4159 39.1679 30.9771C37.976 31.6595 36.5683 32.0008 34.9436 32.0008C32.317 32.0008 30.2718 31.1131 28.8101 29.3389C27.3203 27.5635 26.5759 25.1612 26.5759 22.1309V8.96302C26.5759 8.83831 26.676 8.73854 26.7985 8.73854H35.3303C35.4529 8.73854 35.553 8.83831 35.553 8.96302V20.9836C35.553 22.0753 35.8509 22.9358 36.4457 23.5638C37.0147 24.2191 37.7871 24.5468 38.762 24.5468C39.7368 24.5468 40.5486 24.2191 41.1175 23.5638C41.6865 22.9358 41.9698 22.0753 41.9698 20.9836V8.96302C41.9698 8.83831 42.0699 8.73854 42.1936 8.73854H50.7647C50.8884 8.73854 50.9874 8.83831 50.9874 8.96302ZM127.891 13.8572C128.703 15.6314 129.109 17.7344 129.109 20.1639C129.109 22.5934 128.703 24.71 127.891 26.5126C127.051 28.2868 125.914 29.6518 124.479 30.6075C123.043 31.536 121.432 31.9997 119.645 31.9997C118.156 31.9997 116.883 31.6992 115.827 31.0995C114.977 30.6063 114.286 29.9794 113.753 29.2176C113.628 29.0396 113.349 29.128 113.349 29.3468V31.4884C113.349 31.6131 113.249 31.7128 113.126 31.7128H104.555C104.433 31.7128 104.333 31.6131 104.333 31.4884V1.63142C104.333 1.50785 104.433 1.40695 104.555 1.40695H113.126C113.249 1.40695 113.349 1.50785 113.349 1.63142V10.9833C113.349 11.2021 113.627 11.2905 113.753 11.1125C114.286 10.3552 114.977 9.74186 115.827 9.27025C116.883 8.64218 118.156 8.32815 119.645 8.32815C121.432 8.32815 123.043 8.80657 124.479 9.76114C125.914 10.6896 127.051 12.0546 127.891 13.8572ZM119.97 20.1639C119.97 18.935 119.659 17.9804 119.036 17.2968C118.413 16.6143 117.614 16.2731 116.639 16.2731C115.664 16.2731 114.866 16.6143 114.243 17.2968C113.62 17.9804 113.308 18.935 113.308 20.1639C113.308 21.3928 113.62 22.3485 114.243 23.031C114.866 23.7135 115.664 24.0547 116.639 24.0547C117.614 24.0547 118.413 23.7135 119.036 23.031C119.659 22.3485 119.97 21.3928 119.97 20.1639ZM76.6592 1.63142V31.4884C76.6592 31.6131 76.5603 31.7128 76.4366 31.7128H67.8655C67.7429 31.7128 67.6428 31.6131 67.6428 31.4884V29.3468C67.6428 29.128 67.3651 29.0396 67.2392 29.2176C66.7062 29.9794 66.0147 30.6063 65.1647 31.0995C64.1089 31.6992 62.8361 31.9997 61.3463 31.9997C59.5596 31.9997 57.9484 31.536 56.5126 30.6075C55.0779 29.6518 53.9411 28.2868 53.1012 26.5126C52.2883 24.71 51.8824 22.5945 51.8824 20.1639C51.8824 17.7333 52.2883 15.6314 53.1012 13.8572C53.9411 12.0546 55.0779 10.6896 56.5126 9.76114C57.9484 8.80657 59.5596 8.32815 61.3463 8.32815C62.8361 8.32815 64.1089 8.64218 65.1647 9.27025C66.0147 9.74186 66.7062 10.3552 67.2392 11.1125C67.3651 11.2905 67.6428 11.2021 67.6428 10.9833V1.63142C67.6428 1.50785 67.7429 1.40695 67.8655 1.40695H76.4366C76.5603 1.40695 76.6592 1.50785 76.6592 1.63142ZM67.6833 20.1639C67.6833 18.935 67.3719 17.9804 66.7489 17.2968C66.126 16.6143 65.3277 16.2731 64.3529 16.2731C63.3781 16.2731 62.5786 16.6143 61.9557 17.2968C61.3328 17.9804 61.0213 18.935 61.0213 20.1639C61.0213 21.3928 61.3328 22.3485 61.9557 23.031C62.5786 23.7135 63.3781 24.0547 64.3529 24.0547C65.3277 24.0547 66.126 23.7135 66.7489 23.031C67.3719 22.3485 67.6833 21.3928 67.6833 20.1639ZM94.5032 8.45172C92.8784 8.45172 91.4707 8.79296 90.2789 9.47544C89.3232 10.0355 88.5215 10.7338 87.8761 11.5705C87.7456 11.7406 87.4769 11.6499 87.4769 11.4356V8.83944C87.4769 8.71587 87.3768 8.61497 87.2532 8.61497H78.682C78.5583 8.61497 78.4594 8.71587 78.4594 8.83944V31.4895C78.4594 31.6131 78.5583 31.714 78.682 31.714H87.2532C87.3768 31.714 87.4769 31.6131 87.4769 31.4895V19.4678C87.4769 18.3761 87.7603 17.5156 88.3292 16.8875C88.8981 16.2323 89.683 15.9046 90.6848 15.9046C91.6866 15.9046 92.4321 16.2323 93.001 16.8875C93.5958 17.5156 93.8938 18.3761 93.8938 19.4678V31.4895C93.8938 31.6131 93.9938 31.714 94.1164 31.714H102.648C102.771 31.714 102.871 31.6131 102.871 31.4895V18.3216C102.871 15.2902 102.126 12.8879 100.637 11.1136C99.175 9.33827 97.1297 8.45172 94.5032 8.45172ZM24.4576 13.8572C25.2705 15.6314 25.6764 17.7344 25.6764 20.1639C25.6764 22.5934 25.2705 24.71 24.4576 26.5126C23.6177 28.2868 22.4809 29.6518 21.0462 30.6075C19.6104 31.536 17.9991 31.9997 16.2125 31.9997C14.7227 31.9997 13.4499 31.6992 12.3941 31.0995C11.5452 30.6063 10.8537 29.9794 10.3196 29.2176C10.1948 29.0396 9.91595 29.128 9.91595 29.3468V31.4884C9.91595 31.6131 9.81588 31.7128 9.69332 31.7128H1.12216C0.999606 31.7128 0.899536 31.6131 0.899536 31.4884V1.63142C0.899536 1.50785 0.999606 1.40695 1.12216 1.40695H9.69332C9.81588 1.40695 9.91595 1.50785 9.91595 1.63142V10.9833C9.91595 11.2021 10.1937 11.2905 10.3196 11.1125C10.8526 10.3552 11.5452 9.74186 12.3941 9.27025C13.4499 8.64218 14.7227 8.32815 16.2125 8.32815C17.9991 8.32815 19.6104 8.80657 21.0462 9.76114C22.4809 10.6896 23.6177 12.0546 24.4576 13.8572ZM16.5374 20.1639C16.5374 18.935 16.226 17.9804 15.6031 17.2968C14.9802 16.6143 14.1807 16.2731 13.2059 16.2731C12.2311 16.2731 11.4327 16.6143 10.8098 17.2968C10.1869 17.9804 9.87547 18.935 9.87547 20.1639C9.87547 21.3928 10.1869 22.3485 10.8098 23.031C11.4327 23.7135 12.2311 24.0547 13.2059 24.0547C14.1807 24.0547 14.9802 23.7135 15.6031 23.031C16.226 22.3485 16.5374 21.3928 16.5374 20.1639ZM151.921 13.7755C152.922 15.5226 153.423 17.5847 153.423 19.9598C153.423 20.5165 153.39 21.0527 153.327 21.5663C153.313 21.6785 153.217 21.7613 153.105 21.7613H139.043C138.911 21.7613 138.807 21.878 138.821 22.0107C139.007 23.8382 139.826 24.752 141.279 24.752C142.207 24.752 142.891 24.3416 143.327 23.5219C143.368 23.4482 143.442 23.3995 143.526 23.3995H152.66C152.805 23.3995 152.909 23.5355 152.877 23.6772C152.531 25.2054 151.86 26.5874 150.864 27.8231C149.835 29.1065 148.521 30.1302 146.923 30.8943C145.353 31.6323 143.62 32.0008 141.725 32.0008C139.45 32.0008 137.419 31.5224 135.632 30.5667C133.872 29.611 132.492 28.246 131.489 26.4718C130.515 24.6692 130.026 22.5673 130.026 20.165C130.026 17.7627 130.515 15.6733 131.489 13.898C132.492 12.0965 133.872 10.718 135.632 9.76227C137.419 8.80657 139.45 8.32928 141.725 8.32928C144 8.32928 146.017 8.80657 147.776 9.76227C149.563 10.6908 150.946 12.0285 151.921 13.7755ZM144.275 17.5496C144.228 16.9045 143.987 16.4102 143.553 16.069C143.065 15.6597 142.457 15.4545 141.725 15.4545C140.224 15.4545 139.309 16.1404 138.979 17.5133C138.945 17.6539 139.053 17.7888 139.196 17.7888H144.052C144.181 17.7888 144.284 17.6788 144.275 17.5496ZM179.101 1.63142V31.4884C179.101 31.6131 179 31.7128 178.877 31.7128H170.307C170.183 31.7128 170.084 31.6131 170.084 31.4884V29.3468C170.084 29.128 169.805 29.0396 169.679 29.2176C169.146 29.9794 168.455 30.6063 167.606 31.0995C166.55 31.6992 165.277 31.9997 163.788 31.9997C162.001 31.9997 160.39 31.536 158.954 30.6075C157.519 29.6518 156.382 28.2868 155.542 26.5126C154.73 24.71 154.324 22.5945 154.324 20.1639C154.324 17.7333 154.73 15.6314 155.542 13.8572C156.382 12.0546 157.519 10.6896 158.954 9.76114C160.39 8.80657 162.001 8.32815 163.788 8.32815C165.277 8.32815 166.55 8.64218 167.606 9.27025C168.455 9.74186 169.146 10.3552 169.68 11.1125C169.805 11.2905 170.084 11.2021 170.084 10.9833V1.63142C170.084 1.50785 170.183 1.40695 170.307 1.40695H178.877C179 1.40695 179.101 1.50785 179.101 1.63142ZM170.125 20.1639C170.125 18.935 169.813 17.9804 169.19 17.2968C168.567 16.6143 167.769 16.2731 166.794 16.2731C165.819 16.2731 165.02 16.6143 164.397 17.2968C163.774 17.9804 163.463 18.935 163.463 20.1639C163.463 21.3928 163.774 22.3485 164.397 23.031C165.02 23.7135 165.819 24.0547 166.794 24.0547C167.769 24.0547 168.567 23.7135 169.19 23.031C169.813 22.3485 170.125 21.3928 170.125 20.1639Z" fill="#F8F9FA"/>
</g>
<defs>
<clipPath id="clip0_2005_107">
<rect width="180" height="41" fill="white" transform="translate(0 0.5)"/>
</clipPath>
</defs>
</svg>
