<svg width="24" height="24" viewBox="0 0 24 24" fill="none" xmlns="http://www.w3.org/2000/svg">
<path d="M12 2C16.9706 2 21 6.04348 21 11.0314V20H3V11.0314C3 6.04348 7.02944 2 12 2ZM9.5 21H14.5C14.5 22.3807 13.3807 23.5 12 23.5C10.6193 23.5 9.5 22.3807 9.5 21Z" fill="#071E22"/>
<mask id="path-2-inside-1_2005_133" fill="white">
<path d="M16 4C16 1.79086 17.7909 0 20 0C22.2091 0 24 1.79086 24 4C24 6.20914 22.2091 8 20 8C17.7909 8 16 6.20914 16 4Z"/>
</mask>
<path d="M16 4C16 1.79086 17.7909 0 20 0C22.2091 0 24 1.79086 24 4C24 6.20914 22.2091 8 20 8C17.7909 8 16 6.20914 16 4Z" fill="#FF2E6D"/>
<path d="M20 8V7C18.3431 7 17 5.65685 17 4H16H15C15 6.76142 17.2386 9 20 9V8ZM24 4H23C23 5.65685 21.6569 7 20 7V8V9C22.7614 9 25 6.76142 25 4H24ZM20 0V1C21.6569 1 23 2.34315 23 4H24H25C25 1.23858 22.7614 -1 20 -1V0ZM20 0V-1C17.2386 -1 15 1.23858 15 4H16H17C17 2.34315 18.3431 1 20 1V0Z" fill="#F8F9FA" mask="url(#path-2-inside-1_2005_133)"/>
</svg>
